<svg version="1.2" xmlns="http://www.w3.org/2000/svg" viewBox="0 0 1080 1080" width="1080" height="1080">
	<title>icon</title>
	<style>
		.s0 { fill: #0000ff } 
		.s1 { fill: #00ffff } 
	</style>
	<path id="Background" fill-rule="evenodd" class="s0" d="m177.8 453.3c-0.1-4.1-0.3-8.3-0.3-12.4 0-136.5 116-246.9 259.2-246.9 96.1 0 179.8 49.7 224.7 123.8 24.7-15.8 54.5-25.1 86.4-25.1 85.8 0 155.5 66.4 155.5 148.2 0 18.8-3.8 36.9-10.4 53.3 94.6 18.3 165.9 98.1 165.9 193.5 0 109.1-92.9 197.5-207.4 197.5h-596.1c-128.8 0-233.3-99.5-233.3-222.2 0-96.8 65.1-179.3 155.8-209.7zm-49.1 216.2c0 98.3 83.7 177.9 186.8 177.9h477.4c91.6 0 166-70.7 166-158.1 0-76.5-57.1-140.4-132.8-155 5.2-13.2 8.2-27.6 8.2-42.8 0-65.4-55.8-118.5-124.5-118.5-25.5 0-49.4 7.4-69.1 20-35.9-59.3-103-99.1-179.9-99.1-114.7 0-207.7 88.4-207.7 197.6 0 3.4 0.2 6.8 0.3 10-72.6 24.5-124.7 90.3-124.7 168z"/>
	<path id="Shape 2" class="s1" d="m524.9 529.1c-40.5 0-73.2-33.4-73.2-74.7 0-41.4 32.7-74.7 73.2-74.7 40.5 0 73.1 33.3 73.1 74.7 0 41.3-32.6 74.7-73.1 74.7zm-146.2 257c-40.5 0-73.2-33.4-73.2-74.7 0-41.3 32.7-74.8 73.2-74.8 40.3 0 73 33.5 73 74.8 0 41.3-32.7 74.7-73 74.7zm292.4 0c-40.4 0-73.1-33.4-73.1-74.7 0-41.3 32.7-74.8 73.1-74.8 40.5 0 73.2 33.5 73.2 74.8 0 41.3-32.7 74.7-73.2 74.7zm-281.1-65.5l-16.9-24.5 146.2-104.7 16.9 24.4zm295.1-19.6l-15.9 25.2-166.6-110.3 15.9-25.2zm-175.6-242.3h29.6l0.2 160.9-29.5 0.2zm16.4 189.9c-21.6 0-39-17.8-39-39.9 0-22 17.4-39.9 39-39.9 21.6 0 39.1 17.9 39.1 39.9 0 22.1-17.5 39.9-39.1 39.9z"/>
</svg>